<svg class="rich-terminal" viewBox="0 0 1702 708.8" xmlns="http://www.w3.org/2000/svg">
    <!-- Generated with Rich https://www.textualize.io -->
    <style>

    @font-face {
        font-family: "Fira Code";
        src: local("FiraCode-Regular"),
                url("https://cdnjs.cloudflare.com/ajax/libs/firacode/6.2.0/woff2/FiraCode-Regular.woff2") format("woff2"),
                url("https://cdnjs.cloudflare.com/ajax/libs/firacode/6.2.0/woff/FiraCode-Regular.woff") format("woff");
        font-style: normal;
        font-weight: 400;
    }
    @font-face {
        font-family: "Fira Code";
        src: local("FiraCode-Bold"),
                url("https://cdnjs.cloudflare.com/ajax/libs/firacode/6.2.0/woff2/FiraCode-Bold.woff2") format("woff2"),
                url("https://cdnjs.cloudflare.com/ajax/libs/firacode/6.2.0/woff/FiraCode-Bold.woff") format("woff");
        font-style: bold;
        font-weight: 700;
    }

    .terminal-1821811752-matrix {
        font-family: Fira Code, monospace;
        font-size: 20px;
        line-height: 24.4px;
        font-variant-east-asian: full-width;
    }

    .terminal-1821811752-title {
        font-size: 18px;
        font-weight: bold;
        font-family: arial;
    }

    .terminal-1821811752-r1 { fill: #c5c8c6 }
.terminal-1821811752-r2 { fill: #000000 }
.terminal-1821811752-r3 { fill: #505050 }
.terminal-1821811752-r4 { fill: #eeeeee }
.terminal-1821811752-r5 { fill: #555555 }
.terminal-1821811752-r6 { fill: #707070 }
.terminal-1821811752-r7 { fill: #000000;font-weight: bold }
.terminal-1821811752-r8 { fill: #434343 }
.terminal-1821811752-r9 { fill: #656565 }
.terminal-1821811752-r10 { fill: #bbbbbb }
.terminal-1821811752-r11 { fill: #999999 }
.terminal-1821811752-r12 { fill: #e0e0e0 }
.terminal-1821811752-r13 { fill: #ffffff;font-weight: bold }
.terminal-1821811752-r14 { fill: #aaaaaa }
.terminal-1821811752-r15 { fill: #eeeeee;font-weight: bold }
.terminal-1821811752-r16 { fill: #b0b0b0;font-weight: bold }
.terminal-1821811752-r17 { fill: #ebebeb }
    </style>

    <defs>
    <clipPath id="terminal-1821811752-clip-terminal">
      <rect x="0" y="0" width="1682.6" height="657.8" />
    </clipPath>
    <clipPath id="terminal-1821811752-line-0">
    <rect x="0" y="1.5" width="1683.6" height="24.65"/>
            </clipPath>
<clipPath id="terminal-1821811752-line-1">
    <rect x="0" y="25.9" width="1683.6" height="24.65"/>
            </clipPath>
<clipPath id="terminal-1821811752-line-2">
    <rect x="0" y="50.3" width="1683.6" height="24.65"/>
            </clipPath>
<clipPath id="terminal-1821811752-line-3">
    <rect x="0" y="74.7" width="1683.6" height="24.65"/>
            </clipPath>
<clipPath id="terminal-1821811752-line-4">
    <rect x="0" y="99.1" width="1683.6" height="24.65"/>
            </clipPath>
<clipPath id="terminal-1821811752-line-5">
    <rect x="0" y="123.5" width="1683.6" height="24.65"/>
            </clipPath>
<clipPath id="terminal-1821811752-line-6">
    <rect x="0" y="147.9" width="1683.6" height="24.65"/>
            </clipPath>
<clipPath id="terminal-1821811752-line-7">
    <rect x="0" y="172.3" width="1683.6" height="24.65"/>
            </clipPath>
<clipPath id="terminal-1821811752-line-8">
    <rect x="0" y="196.7" width="1683.6" height="24.65"/>
            </clipPath>
<clipPath id="terminal-1821811752-line-9">
    <rect x="0" y="221.1" width="1683.6" height="24.65"/>
            </clipPath>
<clipPath id="terminal-1821811752-line-10">
    <rect x="0" y="245.5" width="1683.6" height="24.65"/>
            </clipPath>
<clipPath id="terminal-1821811752-line-11">
    <rect x="0" y="269.9" width="1683.6" height="24.65"/>
            </clipPath>
<clipPath id="terminal-1821811752-line-12">
    <rect x="0" y="294.3" width="1683.6" height="24.65"/>
            </clipPath>
<clipPath id="terminal-1821811752-line-13">
    <rect x="0" y="318.7" width="1683.6" height="24.65"/>
            </clipPath>
<clipPath id="terminal-1821811752-line-14">
    <rect x="0" y="343.1" width="1683.6" height="24.65"/>
            </clipPath>
<clipPath id="terminal-1821811752-line-15">
    <rect x="0" y="367.5" width="1683.6" height="24.65"/>
            </clipPath>
<clipPath id="terminal-1821811752-line-16">
    <rect x="0" y="391.9" width="1683.6" height="24.65"/>
            </clipPath>
<clipPath id="terminal-1821811752-line-17">
    <rect x="0" y="416.3" width="1683.6" height="24.65"/>
            </clipPath>
<clipPath id="terminal-1821811752-line-18">
    <rect x="0" y="440.7" width="1683.6" height="24.65"/>
            </clipPath>
<clipPath id="terminal-1821811752-line-19">
    <rect x="0" y="465.1" width="1683.6" height="24.65"/>
            </clipPath>
<clipPath id="terminal-1821811752-line-20">
    <rect x="0" y="489.5" width="1683.6" height="24.65"/>
            </clipPath>
<clipPath id="terminal-1821811752-line-21">
    <rect x="0" y="513.9" width="1683.6" height="24.65"/>
            </clipPath>
<clipPath id="terminal-1821811752-line-22">
    <rect x="0" y="538.3" width="1683.6" height="24.65"/>
            </clipPath>
<clipPath id="terminal-1821811752-line-23">
    <rect x="0" y="562.7" width="1683.6" height="24.65"/>
            </clipPath>
<clipPath id="terminal-1821811752-line-24">
    <rect x="0" y="587.1" width="1683.6" height="24.65"/>
            </clipPath>
<clipPath id="terminal-1821811752-line-25">
    <rect x="0" y="611.5" width="1683.6" height="24.65"/>
            </clipPath>
    </defs>

    <rect fill="#292929" stroke="rgba(255,255,255,0.35)" stroke-width="1" x="1" y="1" width="1700" height="706.8" rx="8"/><text class="terminal-1821811752-title" fill="#c5c8c6" text-anchor="middle" x="850" y="27">OPENJBL</text>
            <g transform="translate(26,22)">
            <circle cx="0" cy="0" r="7" fill="#ff5f57"/>
            <circle cx="22" cy="0" r="7" fill="#febc2e"/>
            <circle cx="44" cy="0" r="7" fill="#28c840"/>
            </g>
        
    <g transform="translate(9, 41)" clip-path="url(#terminal-1821811752-clip-terminal)">
    <rect fill="#eeeeee" x="0" y="1.5" width="12.2" height="24.65" shape-rendering="crispEdges"/><rect fill="#eeeeee" x="12.2" y="1.5" width="12.2" height="24.65" shape-rendering="crispEdges"/><rect fill="#eeeeee" x="24.4" y="1.5" width="61" height="24.65" shape-rendering="crispEdges"/><rect fill="#eeeeee" x="85.4" y="1.5" width="12.2" height="24.65" shape-rendering="crispEdges"/><rect fill="#eeeeee" x="97.6" y="1.5" width="536.8" height="24.65" shape-rendering="crispEdges"/><rect fill="#eeeeee" x="634.4" y="1.5" width="97.6" height="24.65" shape-rendering="crispEdges"/><rect fill="#eeeeee" x="732" y="1.5" width="36.6" height="24.65" shape-rendering="crispEdges"/><rect fill="#eeeeee" x="768.6" y="1.5" width="244" height="24.65" shape-rendering="crispEdges"/><rect fill="#eeeeee" x="1012.6" y="1.5" width="549" height="24.65" shape-rendering="crispEdges"/><rect fill="#eeeeee" x="1561.6" y="1.5" width="12.2" height="24.65" shape-rendering="crispEdges"/><rect fill="#eeeeee" x="1573.8" y="1.5" width="0" height="24.65" shape-rendering="crispEdges"/><rect fill="#eeeeee" x="1573.8" y="1.5" width="97.6" height="24.65" shape-rendering="crispEdges"/><rect fill="#eeeeee" x="1671.4" y="1.5" width="12.2" height="24.65" shape-rendering="crispEdges"/><rect fill="#111111" x="0" y="25.9" width="12.2" height="24.65" shape-rendering="crispEdges"/><rect fill="#111111" x="12.2" y="25.9" width="12.2" height="24.65" shape-rendering="crispEdges"/><rect fill="#111111" x="24.4" y="25.9" width="73.2" height="24.65" shape-rendering="crispEdges"/><rect fill="#111111" x="97.6" y="25.9" width="451.4" height="24.65" shape-rendering="crispEdges"/><rect fill="#111111" x="549" y="25.9" width="12.2" height="24.65" shape-rendering="crispEdges"/><rect fill="#111111" x="561.2" y="25.9" width="12.2" height="24.65" shape-rendering="crispEdges"/><rect fill="#111111" x="573.4" y="25.9" width="12.2" height="24.65" shape-rendering="crispEdges"/><rect fill="#111111" x="585.6" y="25.9" width="73.2" height="24.65" shape-rendering="crispEdges"/><rect fill="#111111" x="658.8" y="25.9" width="439.2" height="24.65" shape-rendering="crispEdges"/><rect fill="#111111" x="1098" y="25.9" width="12.2" height="24.65" shape-rendering="crispEdges"/><rect fill="#111111" x="1110.2" y="25.9" width="12.2" height="24.65" shape-rendering="crispEdges"/><rect fill="#111111" x="1122.4" y="25.9" width="12.2" height="24.65" shape-rendering="crispEdges"/><rect fill="#111111" x="1134.6" y="25.9" width="97.6" height="24.65" shape-rendering="crispEdges"/><rect fill="#111111" x="1232.2" y="25.9" width="427" height="24.65" shape-rendering="crispEdges"/><rect fill="#111111" x="1659.2" y="25.9" width="12.2" height="24.65" shape-rendering="crispEdges"/><rect fill="#111111" x="1671.4" y="25.9" width="12.2" height="24.65" shape-rendering="crispEdges"/><rect fill="#111111" x="0" y="50.3" width="12.2" height="24.65" shape-rendering="crispEdges"/><rect fill="#111111" x="12.2" y="50.3" width="12.2" height="24.65" shape-rendering="crispEdges"/><rect fill="#111111" x="24.4" y="50.3" width="244" height="24.65" shape-rendering="crispEdges"/><rect fill="#111111" x="268.4" y="50.3" width="280.6" height="24.65" shape-rendering="crispEdges"/><rect fill="#111111" x="549" y="50.3" width="12.2" height="24.65" shape-rendering="crispEdges"/><rect fill="#111111" x="561.2" y="50.3" width="12.2" height="24.65" shape-rendering="crispEdges"/><rect fill="#111111" x="573.4" y="50.3" width="12.2" height="24.65" shape-rendering="crispEdges"/><rect fill="#111111" x="585.6" y="50.3" width="390.4" height="24.65" shape-rendering="crispEdges"/><rect fill="#111111" x="976" y="50.3" width="122" height="24.65" shape-rendering="crispEdges"/><rect fill="#111111" x="1098" y="50.3" width="12.2" height="24.65" shape-rendering="crispEdges"/><rect fill="#111111" x="1110.2" y="50.3" width="12.2" height="24.65" shape-rendering="crispEdges"/><rect fill="#111111" x="1122.4" y="50.3" width="12.2" height="24.65" shape-rendering="crispEdges"/><rect fill="#111111" x="1134.6" y="50.3" width="268.4" height="24.65" shape-rendering="crispEdges"/><rect fill="#111111" x="1403" y="50.3" width="256.2" height="24.65" shape-rendering="crispEdges"/><rect fill="#111111" x="1659.2" y="50.3" width="12.2" height="24.65" shape-rendering="crispEdges"/><rect fill="#111111" x="1671.4" y="50.3" width="12.2" height="24.65" shape-rendering="crispEdges"/><rect fill="#111111" x="0" y="74.7" width="12.2" height="24.65" shape-rendering="crispEdges"/><rect fill="#111111" x="12.2" y="74.7" width="12.2" height="24.65" shape-rendering="crispEdges"/><rect fill="#111111" x="24.4" y="74.7" width="524.6" height="24.65" shape-rendering="crispEdges"/><rect fill="#111111" x="549" y="74.7" width="12.2" height="24.65" shape-rendering="crispEdges"/><rect fill="#111111" x="561.2" y="74.7" width="12.2" height="24.65" shape-rendering="crispEdges"/><rect fill="#111111" x="573.4" y="74.7" width="12.2" height="24.65" shape-rendering="crispEdges"/><rect fill="#111111" x="585.6" y="74.7" width="512.4" height="24.65" shape-rendering="crispEdges"/><rect fill="#111111" x="1098" y="74.7" width="12.2" height="24.65" shape-rendering="crispEdges"/><rect fill="#111111" x="1110.2" y="74.7" width="12.2" height="24.65" shape-rendering="crispEdges"/><rect fill="#111111" x="1122.4" y="74.7" width="12.2" height="24.65" shape-rendering="crispEdges"/><rect fill="#111111" x="1134.6" y="74.7" width="524.6" height="24.65" shape-rendering="crispEdges"/><rect fill="#111111" x="1659.2" y="74.7" width="12.2" height="24.65" shape-rendering="crispEdges"/><rect fill="#111111" x="1671.4" y="74.7" width="12.2" height="24.65" shape-rendering="crispEdges"/><rect fill="#000000" x="0" y="99.1" width="12.2" height="24.65" shape-rendering="crispEdges"/><rect fill="#000000" x="12.2" y="99.1" width="122" height="24.65" shape-rendering="crispEdges"/><rect fill="#000000" x="134.2" y="99.1" width="12.2" height="24.65" shape-rendering="crispEdges"/><rect fill="#eeeeee" x="146.4" y="99.1" width="12.2" height="24.65" shape-rendering="crispEdges"/><rect fill="#eeeeee" x="158.6" y="99.1" width="158.6" height="24.65" shape-rendering="crispEdges"/><rect fill="#eeeeee" x="317.2" y="99.1" width="12.2" height="24.65" shape-rendering="crispEdges"/><rect fill="#000000" x="329.4" y="99.1" width="12.2" height="24.65" shape-rendering="crispEdges"/><rect fill="#000000" x="341.6" y="99.1" width="146.4" height="24.65" shape-rendering="crispEdges"/><rect fill="#000000" x="488" y="99.1" width="12.2" height="24.65" shape-rendering="crispEdges"/><rect fill="#000000" x="500.2" y="99.1" width="1183.4" height="24.65" shape-rendering="crispEdges"/><rect fill="#000000" x="0" y="123.5" width="146.4" height="24.65" shape-rendering="crispEdges"/><rect fill="#000000" x="146.4" y="123.5" width="12.2" height="24.65" shape-rendering="crispEdges"/><rect fill="#000000" x="158.6" y="123.5" width="158.6" height="24.65" shape-rendering="crispEdges"/><rect fill="#000000" x="317.2" y="123.5" width="12.2" height="24.65" shape-rendering="crispEdges"/><rect fill="#000000" x="329.4" y="123.5" width="1354.2" height="24.65" shape-rendering="crispEdges"/><rect fill="#000000" x="0" y="147.9" width="12.2" height="24.65" shape-rendering="crispEdges"/><rect fill="#111111" x="12.2" y="147.9" width="12.2" height="24.65" shape-rendering="crispEdges"/><rect fill="#111111" x="24.4" y="147.9" width="1085.8" height="24.65" shape-rendering="crispEdges"/><rect fill="#111111" x="1110.2" y="147.9" width="549" height="24.65" shape-rendering="crispEdges"/><rect fill="#111111" x="1659.2" y="147.9" width="12.2" height="24.65" shape-rendering="crispEdges"/><rect fill="#000000" x="1671.4" y="147.9" width="12.2" height="24.65" shape-rendering="crispEdges"/><rect fill="#000000" x="0" y="172.3" width="12.2" height="24.65" shape-rendering="crispEdges"/><rect fill="#111111" x="12.2" y="172.3" width="12.2" height="24.65" shape-rendering="crispEdges"/><rect fill="#111111" x="24.4" y="172.3" width="1634.8" height="24.65" shape-rendering="crispEdges"/><rect fill="#111111" x="1659.2" y="172.3" width="12.2" height="24.65" shape-rendering="crispEdges"/><rect fill="#000000" x="1671.4" y="172.3" width="12.2" height="24.65" shape-rendering="crispEdges"/><rect fill="#000000" x="0" y="196.7" width="12.2" height="24.65" shape-rendering="crispEdges"/><rect fill="#090909" x="12.2" y="196.7" width="1659.2" height="24.65" shape-rendering="crispEdges"/><rect fill="#000000" x="1671.4" y="196.7" width="12.2" height="24.65" shape-rendering="crispEdges"/><rect fill="#000000" x="0" y="221.1" width="12.2" height="24.65" shape-rendering="crispEdges"/><rect fill="#090909" x="12.2" y="221.1" width="12.2" height="24.65" shape-rendering="crispEdges"/><rect fill="#090909" x="24.4" y="221.1" width="158.6" height="24.65" shape-rendering="crispEdges"/><rect fill="#090909" x="183" y="221.1" width="1476.2" height="24.65" shape-rendering="crispEdges"/><rect fill="#090909" x="1659.2" y="221.1" width="12.2" height="24.65" shape-rendering="crispEdges"/><rect fill="#000000" x="1671.4" y="221.1" width="12.2" height="24.65" shape-rendering="crispEdges"/><rect fill="#000000" x="0" y="245.5" width="12.2" height="24.65" shape-rendering="crispEdges"/><rect fill="#090909" x="12.2" y="245.5" width="12.2" height="24.65" shape-rendering="crispEdges"/><rect fill="#090909" x="24.4" y="245.5" width="12.2" height="24.65" shape-rendering="crispEdges"/><rect fill="#090909" x="36.6" y="245.5" width="622.2" height="24.65" shape-rendering="crispEdges"/><rect fill="#090909" x="658.8" y="245.5" width="12.2" height="24.65" shape-rendering="crispEdges"/><rect fill="#090909" x="671" y="245.5" width="12.2" height="24.65" shape-rendering="crispEdges"/><rect fill="#090909" x="683.2" y="245.5" width="12.2" height="24.65" shape-rendering="crispEdges"/><rect fill="#090909" x="695.4" y="245.5" width="951.6" height="24.65" shape-rendering="crispEdges"/><rect fill="#090909" x="1647" y="245.5" width="12.2" height="24.65" shape-rendering="crispEdges"/><rect fill="#090909" x="1659.2" y="245.5" width="12.2" height="24.65" shape-rendering="crispEdges"/><rect fill="#000000" x="1671.4" y="245.5" width="12.2" height="24.65" shape-rendering="crispEdges"/><rect fill="#000000" x="0" y="269.9" width="12.2" height="24.65" shape-rendering="crispEdges"/><rect fill="#090909" x="12.2" y="269.9" width="12.2" height="24.65" shape-rendering="crispEdges"/><rect fill="#090909" x="24.4" y="269.9" width="12.2" height="24.65" shape-rendering="crispEdges"/><rect fill="#1e1e1e" x="36.6" y="269.9" width="12.2" height="24.65" shape-rendering="crispEdges"/><rect fill="#1e1e1e" x="48.8" y="269.9" width="597.8" height="24.65" shape-rendering="crispEdges"/><rect fill="#1e1e1e" x="646.6" y="269.9" width="12.2" height="24.65" shape-rendering="crispEdges"/><rect fill="#090909" x="658.8" y="269.9" width="12.2" height="24.65" shape-rendering="crispEdges"/><rect fill="#090909" x="671" y="269.9" width="12.2" height="24.65" shape-rendering="crispEdges"/><rect fill="#090909" x="683.2" y="269.9" width="12.2" height="24.65" shape-rendering="crispEdges"/><rect fill="#090909" x="695.4" y="269.9" width="24.4" height="24.65" shape-rendering="crispEdges"/><rect fill="#090909" x="719.8" y="269.9" width="280.6" height="24.65" shape-rendering="crispEdges"/><rect fill="#090909" x="1000.4" y="269.9" width="622.2" height="24.65" shape-rendering="crispEdges"/><rect fill="#090909" x="1622.6" y="269.9" width="24.4" height="24.65" shape-rendering="crispEdges"/><rect fill="#090909" x="1647" y="269.9" width="12.2" height="24.65" shape-rendering="crispEdges"/><rect fill="#090909" x="1659.2" y="269.9" width="12.2" height="24.65" shape-rendering="crispEdges"/><rect fill="#000000" x="1671.4" y="269.9" width="12.2" height="24.65" shape-rendering="crispEdges"/><rect fill="#000000" x="0" y="294.3" width="12.2" height="24.65" shape-rendering="crispEdges"/><rect fill="#090909" x="12.2" y="294.3" width="12.2" height="24.65" shape-rendering="crispEdges"/><rect fill="#090909" x="24.4" y="294.3" width="12.2" height="24.65" shape-rendering="crispEdges"/><rect fill="#1e1e1e" x="36.6" y="294.3" width="12.2" height="24.65" shape-rendering="crispEdges"/><rect fill="#1e1e1e" x="48.8" y="294.3" width="12.2" height="24.65" shape-rendering="crispEdges"/><rect fill="#1e1e1e" x="61" y="294.3" width="109.8" height="24.65" shape-rendering="crispEdges"/><rect fill="#1e1e1e" x="170.8" y="294.3" width="463.6" height="24.65" shape-rendering="crispEdges"/><rect fill="#1e1e1e" x="634.4" y="294.3" width="12.2" height="24.65" shape-rendering="crispEdges"/><rect fill="#1e1e1e" x="646.6" y="294.3" width="12.2" height="24.65" shape-rendering="crispEdges"/><rect fill="#090909" x="658.8" y="294.3" width="12.2" height="24.65" shape-rendering="crispEdges"/><rect fill="#090909" x="671" y="294.3" width="12.2" height="24.65" shape-rendering="crispEdges"/><rect fill="#090909" x="683.2" y="294.3" width="12.2" height="24.65" shape-rendering="crispEdges"/><rect fill="#090909" x="695.4" y="294.3" width="951.6" height="24.65" shape-rendering="crispEdges"/><rect fill="#090909" x="1647" y="294.3" width="12.2" height="24.65" shape-rendering="crispEdges"/><rect fill="#090909" x="1659.2" y="294.3" width="12.2" height="24.65" shape-rendering="crispEdges"/><rect fill="#000000" x="1671.4" y="294.3" width="12.2" height="24.65" shape-rendering="crispEdges"/><rect fill="#000000" x="0" y="318.7" width="12.2" height="24.65" shape-rendering="crispEdges"/><rect fill="#090909" x="12.2" y="318.7" width="12.2" height="24.65" shape-rendering="crispEdges"/><rect fill="#090909" x="24.4" y="318.7" width="817.4" height="24.65" shape-rendering="crispEdges"/><rect fill="#090909" x="841.8" y="318.7" width="817.4" height="24.65" shape-rendering="crispEdges"/><rect fill="#090909" x="1659.2" y="318.7" width="12.2" height="24.65" shape-rendering="crispEdges"/><rect fill="#000000" x="1671.4" y="318.7" width="12.2" height="24.65" shape-rendering="crispEdges"/><rect fill="#000000" x="0" y="343.1" width="12.2" height="24.65" shape-rendering="crispEdges"/><rect fill="#090909" x="12.2" y="343.1" width="12.2" height="24.65" shape-rendering="crispEdges"/><rect fill="#090909" x="24.4" y="343.1" width="1634.8" height="24.65" shape-rendering="crispEdges"/><rect fill="#090909" x="1659.2" y="343.1" width="12.2" height="24.65" shape-rendering="crispEdges"/><rect fill="#000000" x="1671.4" y="343.1" width="12.2" height="24.65" shape-rendering="crispEdges"/><rect fill="#000000" x="0" y="367.5" width="12.2" height="24.65" shape-rendering="crispEdges"/><rect fill="#090909" x="12.2" y="367.5" width="12.2" height="24.65" shape-rendering="crispEdges"/><rect fill="#090909" x="24.4" y="367.5" width="1281" height="24.65" shape-rendering="crispEdges"/><rect fill="#090909" x="1305.4" y="367.5" width="353.8" height="24.65" shape-rendering="crispEdges"/><rect fill="#090909" x="1659.2" y="367.5" width="12.2" height="24.65" shape-rendering="crispEdges"/><rect fill="#000000" x="1671.4" y="367.5" width="12.2" height="24.65" shape-rendering="crispEdges"/><rect fill="#000000" x="0" y="391.9" width="12.2" height="24.65" shape-rendering="crispEdges"/><rect fill="#090909" x="12.2" y="391.9" width="1659.2" height="24.65" shape-rendering="crispEdges"/><rect fill="#000000" x="1671.4" y="391.9" width="12.2" height="24.65" shape-rendering="crispEdges"/><rect fill="#000000" x="0" y="416.3" width="12.2" height="24.65" shape-rendering="crispEdges"/><rect fill="#111111" x="12.2" y="416.3" width="12.2" height="24.65" shape-rendering="crispEdges"/><rect fill="#111111" x="24.4" y="416.3" width="793" height="24.65" shape-rendering="crispEdges"/><rect fill="#111111" x="817.4" y="416.3" width="841.8" height="24.65" shape-rendering="crispEdges"/><rect fill="#111111" x="1659.2" y="416.3" width="12.2" height="24.65" shape-rendering="crispEdges"/><rect fill="#000000" x="1671.4" y="416.3" width="12.2" height="24.65" shape-rendering="crispEdges"/><rect fill="#000000" x="0" y="440.7" width="12.2" height="24.65" shape-rendering="crispEdges"/><rect fill="#111111" x="12.2" y="440.7" width="12.2" height="24.65" shape-rendering="crispEdges"/><rect fill="#111111" x="24.4" y="440.7" width="1634.8" height="24.65" shape-rendering="crispEdges"/><rect fill="#111111" x="1659.2" y="440.7" width="12.2" height="24.65" shape-rendering="crispEdges"/><rect fill="#000000" x="1671.4" y="440.7" width="12.2" height="24.65" shape-rendering="crispEdges"/><rect fill="#000000" x="0" y="465.1" width="12.2" height="24.65" shape-rendering="crispEdges"/><rect fill="#111111" x="12.2" y="465.1" width="12.2" height="24.65" shape-rendering="crispEdges"/><rect fill="#111111" x="24.4" y="465.1" width="207.4" height="24.65" shape-rendering="crispEdges"/><rect fill="#111111" x="231.8" y="465.1" width="12.2" height="24.65" shape-rendering="crispEdges"/><rect fill="#000000" x="244" y="465.1" width="12.2" height="24.65" shape-rendering="crispEdges"/><rect fill="#111111" x="256.2" y="465.1" width="12.2" height="24.65" shape-rendering="crispEdges"/><rect fill="#111111" x="268.4" y="465.1" width="231.8" height="24.65" shape-rendering="crispEdges"/><rect fill="#111111" x="500.2" y="465.1" width="12.2" height="24.65" shape-rendering="crispEdges"/><rect fill="#000000" x="512.4" y="465.1" width="12.2" height="24.65" shape-rendering="crispEdges"/><rect fill="#eeeeee" x="524.6" y="465.1" width="12.2" height="24.65" shape-rendering="crispEdges"/><rect fill="#eeeeee" x="536.8" y="465.1" width="244" height="24.65" shape-rendering="crispEdges"/><rect fill="#eeeeee" x="780.8" y="465.1" width="12.2" height="24.65" shape-rendering="crispEdges"/><rect fill="#000000" x="793" y="465.1" width="878.4" height="24.65" shape-rendering="crispEdges"/><rect fill="#000000" x="1671.4" y="465.1" width="12.2" height="24.65" shape-rendering="crispEdges"/><rect fill="#000000" x="0" y="489.5" width="12.2" height="24.65" shape-rendering="crispEdges"/><rect fill="#111111" x="12.2" y="489.5" width="12.2" height="24.65" shape-rendering="crispEdges"/><rect fill="#111111" x="24.4" y="489.5" width="207.4" height="24.65" shape-rendering="crispEdges"/><rect fill="#111111" x="231.8" y="489.5" width="12.2" height="24.65" shape-rendering="crispEdges"/><rect fill="#000000" x="244" y="489.5" width="12.2" height="24.65" shape-rendering="crispEdges"/><rect fill="#111111" x="256.2" y="489.5" width="12.2" height="24.65" shape-rendering="crispEdges"/><rect fill="#111111" x="268.4" y="489.5" width="231.8" height="24.65" shape-rendering="crispEdges"/><rect fill="#111111" x="500.2" y="489.5" width="12.2" height="24.65" shape-rendering="crispEdges"/><rect fill="#000000" x="512.4" y="489.5" width="12.2" height="24.65" shape-rendering="crispEdges"/><rect fill="#eeeeee" x="524.6" y="489.5" width="12.2" height="24.65" shape-rendering="crispEdges"/><rect fill="#eeeeee" x="536.8" y="489.5" width="12.2" height="24.65" shape-rendering="crispEdges"/><rect fill="#eeeeee" x="549" y="489.5" width="219.6" height="24.65" shape-rendering="crispEdges"/><rect fill="#eeeeee" x="768.6" y="489.5" width="12.2" height="24.65" shape-rendering="crispEdges"/><rect fill="#eeeeee" x="780.8" y="489.5" width="12.2" height="24.65" shape-rendering="crispEdges"/><rect fill="#000000" x="793" y="489.5" width="878.4" height="24.65" shape-rendering="crispEdges"/><rect fill="#000000" x="1671.4" y="489.5" width="12.2" height="24.65" shape-rendering="crispEdges"/><rect fill="#000000" x="0" y="513.9" width="12.2" height="24.65" shape-rendering="crispEdges"/><rect fill="#111111" x="12.2" y="513.9" width="12.2" height="24.65" shape-rendering="crispEdges"/><rect fill="#111111" x="24.4" y="513.9" width="207.4" height="24.65" shape-rendering="crispEdges"/><rect fill="#111111" x="231.8" y="513.9" width="12.2" height="24.65" shape-rendering="crispEdges"/><rect fill="#000000" x="244" y="513.9" width="12.2" height="24.65" shape-rendering="crispEdges"/><rect fill="#111111" x="256.2" y="513.9" width="12.2" height="24.65" shape-rendering="crispEdges"/><rect fill="#111111" x="268.4" y="513.9" width="231.8" height="24.65" shape-rendering="crispEdges"/><rect fill="#111111" x="500.2" y="513.9" width="12.2" height="24.65" shape-rendering="crispEdges"/><rect fill="#000000" x="512.4" y="513.9" width="12.2" height="24.65" shape-rendering="crispEdges"/><rect fill="#eeeeee" x="524.6" y="513.9" width="12.2" height="24.65" shape-rendering="crispEdges"/><rect fill="#eeeeee" x="536.8" y="513.9" width="244" height="24.65" shape-rendering="crispEdges"/><rect fill="#eeeeee" x="780.8" y="513.9" width="12.2" height="24.65" shape-rendering="crispEdges"/><rect fill="#000000" x="793" y="513.9" width="878.4" height="24.65" shape-rendering="crispEdges"/><rect fill="#000000" x="1671.4" y="513.9" width="12.2" height="24.65" shape-rendering="crispEdges"/><rect fill="#000000" x="0" y="538.3" width="1683.6" height="24.65" shape-rendering="crispEdges"/><rect fill="#000000" x="0" y="562.7" width="1683.6" height="24.65" shape-rendering="crispEdges"/><rect fill="#000000" x="0" y="587.1" width="1683.6" height="24.65" shape-rendering="crispEdges"/><rect fill="#000000" x="0" y="611.5" width="1683.6" height="24.65" shape-rendering="crispEdges"/><rect fill="#eeeeee" x="0" y="635.9" width="36.6" height="24.65" shape-rendering="crispEdges"/><rect fill="#eeeeee" x="36.6" y="635.9" width="61" height="24.65" shape-rendering="crispEdges"/><rect fill="#eeeeee" x="97.6" y="635.9" width="36.6" height="24.65" shape-rendering="crispEdges"/><rect fill="#eeeeee" x="134.2" y="635.9" width="61" height="24.65" shape-rendering="crispEdges"/><rect fill="#eeeeee" x="195.2" y="635.9" width="36.6" height="24.65" shape-rendering="crispEdges"/><rect fill="#eeeeee" x="231.8" y="635.9" width="73.2" height="24.65" shape-rendering="crispEdges"/><rect fill="#eeeeee" x="305" y="635.9" width="36.6" height="24.65" shape-rendering="crispEdges"/><rect fill="#eeeeee" x="341.6" y="635.9" width="97.6" height="24.65" shape-rendering="crispEdges"/><rect fill="#eeeeee" x="439.2" y="635.9" width="36.6" height="24.65" shape-rendering="crispEdges"/><rect fill="#eeeeee" x="475.8" y="635.9" width="97.6" height="24.65" shape-rendering="crispEdges"/><rect fill="#eeeeee" x="573.4" y="635.9" width="36.6" height="24.65" shape-rendering="crispEdges"/><rect fill="#eeeeee" x="610" y="635.9" width="85.4" height="24.65" shape-rendering="crispEdges"/><rect fill="#eeeeee" x="695.4" y="635.9" width="36.6" height="24.65" shape-rendering="crispEdges"/><rect fill="#eeeeee" x="732" y="635.9" width="36.6" height="24.65" shape-rendering="crispEdges"/><rect fill="#eeeeee" x="768.6" y="635.9" width="36.6" height="24.65" shape-rendering="crispEdges"/><rect fill="#eeeeee" x="805.2" y="635.9" width="109.8" height="24.65" shape-rendering="crispEdges"/><rect fill="#eeeeee" x="915" y="635.9" width="622.2" height="24.65" shape-rendering="crispEdges"/><rect fill="#eeeeee" x="1537.2" y="635.9" width="12.2" height="24.65" shape-rendering="crispEdges"/><rect fill="#eeeeee" x="1549.4" y="635.9" width="24.4" height="24.65" shape-rendering="crispEdges"/><rect fill="#eeeeee" x="1573.8" y="635.9" width="97.6" height="24.65" shape-rendering="crispEdges"/><rect fill="#eeeeee" x="1671.4" y="635.9" width="12.2" height="24.65" shape-rendering="crispEdges"/>
    <g class="terminal-1821811752-matrix">
    <text class="terminal-1821811752-r2" x="12.2" y="20" textLength="12.2" clip-path="url(#terminal-1821811752-line-0)">⭘</text><text class="terminal-1821811752-r2" x="634.4" y="20" textLength="97.6" clip-path="url(#terminal-1821811752-line-0)">OPENJBL</text><text class="terminal-1821811752-r3" x="732" y="20" textLength="36.6" clip-path="url(#terminal-1821811752-line-0)">&#160;—&#160;</text><text class="terminal-1821811752-r3" x="768.6" y="20" textLength="244" clip-path="url(#terminal-1821811752-line-0)">BLUETOOTH&#160;EQ&#160;CONTROL</text><text class="terminal-1821811752-r1" x="1683.6" y="20" textLength="12.2" clip-path="url(#terminal-1821811752-line-0)">
</text><text class="terminal-1821811752-r4" x="24.4" y="44.4" textLength="73.2" clip-path="url(#terminal-1821811752-line-1)">SYSTEM</text><text class="terminal-1821811752-r5" x="561.2" y="44.4" textLength="12.2" clip-path="url(#terminal-1821811752-line-1)">|</text><text class="terminal-1821811752-r4" x="585.6" y="44.4" textLength="73.2" clip-path="url(#terminal-1821811752-line-1)">DEVICE</text><text class="terminal-1821811752-r5" x="1110.2" y="44.4" textLength="12.2" clip-path="url(#terminal-1821811752-line-1)">|</text><text class="terminal-1821811752-r4" x="1134.6" y="44.4" textLength="97.6" clip-path="url(#terminal-1821811752-line-1)">PROTOCOL</text><text class="terminal-1821811752-r1" x="1683.6" y="44.4" textLength="12.2" clip-path="url(#terminal-1821811752-line-1)">
</text><text class="terminal-1821811752-r4" x="24.4" y="68.8" textLength="244" clip-path="url(#terminal-1821811752-line-2)">READY&#160;-&#160;1&#160;JBL&#160;DEVICE</text><text class="terminal-1821811752-r5" x="561.2" y="68.8" textLength="12.2" clip-path="url(#terminal-1821811752-line-2)">|</text><text class="terminal-1821811752-r4" x="585.6" y="68.8" textLength="390.4" clip-path="url(#terminal-1821811752-line-2)">ONLINE&#160;&#160;JBL&#160;Charge&#160;6&#160;&#160;FW&#160;3.0.7.1</text><text class="terminal-1821811752-r5" x="1110.2" y="68.8" textLength="12.2" clip-path="url(#terminal-1821811752-line-2)">|</text><text class="terminal-1821811752-r4" x="1134.6" y="68.8" textLength="268.4" clip-path="url(#terminal-1821811752-line-2)">legacy-parametric/0x97</text><text class="terminal-1821811752-r1" x="1683.6" y="68.8" textLength="12.2" clip-path="url(#terminal-1821811752-line-2)">
</text><text class="terminal-1821811752-r5" x="561.2" y="93.2" textLength="12.2" clip-path="url(#terminal-1821811752-line-3)">|</text><text class="terminal-1821811752-r5" x="1110.2" y="93.2" textLength="12.2" clip-path="url(#terminal-1821811752-line-3)">|</text><text class="terminal-1821811752-r1" x="1683.6" y="93.2" textLength="12.2" clip-path="url(#terminal-1821811752-line-3)">
</text><text class="terminal-1821811752-r6" x="12.2" y="117.6" textLength="122" clip-path="url(#terminal-1821811752-line-4)">01&#160;&#160;DEVICE</text><text class="terminal-1821811752-r7" x="158.6" y="117.6" textLength="158.6" clip-path="url(#terminal-1821811752-line-4)">02&#160;&#160;EQUALIZER</text><text class="terminal-1821811752-r6" x="341.6" y="117.6" textLength="146.4" clip-path="url(#terminal-1821811752-line-4)">03&#160;&#160;ACTIVITY</text><text class="terminal-1821811752-r1" x="1683.6" y="117.6" textLength="12.2" clip-path="url(#terminal-1821811752-line-4)">
</text><text class="terminal-1821811752-r8" x="0" y="142" textLength="146.4" clip-path="url(#terminal-1821811752-line-5)">━━━━━━━━━━━━</text><text class="terminal-1821811752-r8" x="146.4" y="142" textLength="12.2" clip-path="url(#terminal-1821811752-line-5)">╸</text><text class="terminal-1821811752-r9" x="158.6" y="142" textLength="158.6" clip-path="url(#terminal-1821811752-line-5)">━━━━━━━━━━━━━</text><text class="terminal-1821811752-r8" x="317.2" y="142" textLength="12.2" clip-path="url(#terminal-1821811752-line-5)">╺</text><text class="terminal-1821811752-r8" x="329.4" y="142" textLength="1354.2" clip-path="url(#terminal-1821811752-line-5)">━━━━━━━━━━━━━━━━━━━━━━━━━━━━━━━━━━━━━━━━━━━━━━━━━━━━━━━━━━━━━━━━━━━━━━━━━━━━━━━━━━━━━━━━━━━━━━━━━━━━━━━━━━━━━━━</text><text class="terminal-1821811752-r1" x="1683.6" y="142" textLength="12.2" clip-path="url(#terminal-1821811752-line-5)">
</text><text class="terminal-1821811752-r10" x="24.4" y="166.4" textLength="1085.8" clip-path="url(#terminal-1821811752-line-6)">Choose&#160;a&#160;preset&#160;or&#160;edit&#160;gains.&#160;Preview&#160;is&#160;offline;&#160;Read&#160;and&#160;Apply&#160;connect&#160;to&#160;the&#160;speaker.</text><text class="terminal-1821811752-r1" x="1683.6" y="166.4" textLength="12.2" clip-path="url(#terminal-1821811752-line-6)">
</text><text class="terminal-1821811752-r1" x="1683.6" y="190.8" textLength="12.2" clip-path="url(#terminal-1821811752-line-7)">
</text><text class="terminal-1821811752-r1" x="1683.6" y="215.2" textLength="12.2" clip-path="url(#terminal-1821811752-line-8)">
</text><text class="terminal-1821811752-r11" x="24.4" y="239.6" textLength="158.6" clip-path="url(#terminal-1821811752-line-9)">SOUND&#160;PROFILE</text><text class="terminal-1821811752-r1" x="1683.6" y="239.6" textLength="12.2" clip-path="url(#terminal-1821811752-line-9)">
</text><text class="terminal-1821811752-r5" x="24.4" y="264" textLength="12.2" clip-path="url(#terminal-1821811752-line-10)">+</text><text class="terminal-1821811752-r5" x="36.6" y="264" textLength="622.2" clip-path="url(#terminal-1821811752-line-10)">---------------------------------------------------</text><text class="terminal-1821811752-r5" x="658.8" y="264" textLength="12.2" clip-path="url(#terminal-1821811752-line-10)">+</text><text class="terminal-1821811752-r5" x="683.2" y="264" textLength="12.2" clip-path="url(#terminal-1821811752-line-10)">+</text><text class="terminal-1821811752-r5" x="695.4" y="264" textLength="951.6" clip-path="url(#terminal-1821811752-line-10)">------------------------------------------------------------------------------</text><text class="terminal-1821811752-r5" x="1647" y="264" textLength="12.2" clip-path="url(#terminal-1821811752-line-10)">+</text><text class="terminal-1821811752-r1" x="1683.6" y="264" textLength="12.2" clip-path="url(#terminal-1821811752-line-10)">
</text><text class="terminal-1821811752-r5" x="24.4" y="288.4" textLength="12.2" clip-path="url(#terminal-1821811752-line-11)">|</text><text class="terminal-1821811752-r5" x="36.6" y="288.4" textLength="12.2" clip-path="url(#terminal-1821811752-line-11)">+</text><text class="terminal-1821811752-r5" x="48.8" y="288.4" textLength="597.8" clip-path="url(#terminal-1821811752-line-11)">-------------------------------------------------</text><text class="terminal-1821811752-r5" x="646.6" y="288.4" textLength="12.2" clip-path="url(#terminal-1821811752-line-11)">+</text><text class="terminal-1821811752-r5" x="658.8" y="288.4" textLength="12.2" clip-path="url(#terminal-1821811752-line-11)">|</text><text class="terminal-1821811752-r5" x="683.2" y="288.4" textLength="12.2" clip-path="url(#terminal-1821811752-line-11)">|</text><text class="terminal-1821811752-r4" x="719.8" y="288.4" textLength="280.6" clip-path="url(#terminal-1821811752-line-11)">6,&#160;3,&#160;0,&#160;-2,&#160;-1,&#160;0,&#160;0.5</text><text class="terminal-1821811752-r5" x="1647" y="288.4" textLength="12.2" clip-path="url(#terminal-1821811752-line-11)">|</text><text class="terminal-1821811752-r1" x="1683.6" y="288.4" textLength="12.2" clip-path="url(#terminal-1821811752-line-11)">
</text><text class="terminal-1821811752-r5" x="24.4" y="312.8" textLength="12.2" clip-path="url(#terminal-1821811752-line-12)">|</text><text class="terminal-1821811752-r5" x="36.6" y="312.8" textLength="12.2" clip-path="url(#terminal-1821811752-line-12)">|</text><text class="terminal-1821811752-r12" x="61" y="312.8" textLength="109.8" clip-path="url(#terminal-1821811752-line-12)">Deep&#160;Bass</text><text class="terminal-1821811752-r5" x="646.6" y="312.8" textLength="12.2" clip-path="url(#terminal-1821811752-line-12)">|</text><text class="terminal-1821811752-r5" x="658.8" y="312.8" textLength="12.2" clip-path="url(#terminal-1821811752-line-12)">|</text><text class="terminal-1821811752-r5" x="683.2" y="312.8" textLength="12.2" clip-path="url(#terminal-1821811752-line-12)">+</text><text class="terminal-1821811752-r5" x="695.4" y="312.8" textLength="951.6" clip-path="url(#terminal-1821811752-line-12)">------------------------------------------------------------------------------</text><text class="terminal-1821811752-r5" x="1647" y="312.8" textLength="12.2" clip-path="url(#terminal-1821811752-line-12)">+</text><text class="terminal-1821811752-r1" x="1683.6" y="312.8" textLength="12.2" clip-path="url(#terminal-1821811752-line-12)">
</text><text class="terminal-1821811752-r13" x="24.4" y="337.2" textLength="817.4" clip-path="url(#terminal-1821811752-line-13)">CUSTOM&#160;@*+-=++&#160;&#160;&#160;&#160;B1&#160;+6&#160;&#160;B2&#160;+3&#160;&#160;B3&#160;+0&#160;&#160;B4&#160;-2&#160;&#160;B5&#160;-1&#160;&#160;B6&#160;+0&#160;&#160;B7&#160;+0.5</text><text class="terminal-1821811752-r1" x="1683.6" y="337.2" textLength="12.2" clip-path="url(#terminal-1821811752-line-13)">
</text><text class="terminal-1821811752-r1" x="1683.6" y="361.6" textLength="12.2" clip-path="url(#terminal-1821811752-line-14)">
</text><text class="terminal-1821811752-r14" x="24.4" y="386" textLength="1281" clip-path="url(#terminal-1821811752-line-15)">DEEP&#160;BASS&#160;&#160;/&#160;&#160;Deeper&#160;low-end&#160;weight&#160;with&#160;reduced&#160;low-mids&#160;for&#160;additional&#160;space&#160;&#160;/&#160;&#160;TAGS:&#160;bass,&#160;electronic</text><text class="terminal-1821811752-r1" x="1683.6" y="386" textLength="12.2" clip-path="url(#terminal-1821811752-line-15)">
</text><text class="terminal-1821811752-r1" x="1683.6" y="410.4" textLength="12.2" clip-path="url(#terminal-1821811752-line-16)">
</text><text class="terminal-1821811752-r10" x="24.4" y="434.8" textLength="793" clip-path="url(#terminal-1821811752-line-17)">DIRECT&#160;APPLY&#160;&#160;The&#160;button&#160;writes&#160;the&#160;selected&#160;profile&#160;immediately.</text><text class="terminal-1821811752-r1" x="1683.6" y="434.8" textLength="12.2" clip-path="url(#terminal-1821811752-line-17)">
</text><text class="terminal-1821811752-r1" x="1683.6" y="459.2" textLength="12.2" clip-path="url(#terminal-1821811752-line-18)">
</text><text class="terminal-1821811752-r5" x="12.2" y="483.6" textLength="12.2" clip-path="url(#terminal-1821811752-line-19)">+</text><text class="terminal-1821811752-r5" x="24.4" y="483.6" textLength="207.4" clip-path="url(#terminal-1821811752-line-19)">-----------------</text><text class="terminal-1821811752-r5" x="231.8" y="483.6" textLength="12.2" clip-path="url(#terminal-1821811752-line-19)">+</text><text class="terminal-1821811752-r5" x="256.2" y="483.6" textLength="12.2" clip-path="url(#terminal-1821811752-line-19)">+</text><text class="terminal-1821811752-r5" x="268.4" y="483.6" textLength="231.8" clip-path="url(#terminal-1821811752-line-19)">-------------------</text><text class="terminal-1821811752-r5" x="500.2" y="483.6" textLength="12.2" clip-path="url(#terminal-1821811752-line-19)">+</text><text class="terminal-1821811752-r5" x="524.6" y="483.6" textLength="12.2" clip-path="url(#terminal-1821811752-line-19)">+</text><text class="terminal-1821811752-r5" x="536.8" y="483.6" textLength="244" clip-path="url(#terminal-1821811752-line-19)">--------------------</text><text class="terminal-1821811752-r5" x="780.8" y="483.6" textLength="12.2" clip-path="url(#terminal-1821811752-line-19)">+</text><text class="terminal-1821811752-r1" x="1683.6" y="483.6" textLength="12.2" clip-path="url(#terminal-1821811752-line-19)">
</text><text class="terminal-1821811752-r5" x="12.2" y="508" textLength="12.2" clip-path="url(#terminal-1821811752-line-20)">|</text><text class="terminal-1821811752-r15" x="24.4" y="508" textLength="207.4" clip-path="url(#terminal-1821811752-line-20)">&#160;R&#160;&#160;READ&#160;CURRENT&#160;</text><text class="terminal-1821811752-r5" x="231.8" y="508" textLength="12.2" clip-path="url(#terminal-1821811752-line-20)">|</text><text class="terminal-1821811752-r5" x="256.2" y="508" textLength="12.2" clip-path="url(#terminal-1821811752-line-20)">|</text><text class="terminal-1821811752-r15" x="268.4" y="508" textLength="231.8" clip-path="url(#terminal-1821811752-line-20)">&#160;V&#160;&#160;PREVIEW&#160;PACKET&#160;</text><text class="terminal-1821811752-r5" x="500.2" y="508" textLength="12.2" clip-path="url(#terminal-1821811752-line-20)">|</text><text class="terminal-1821811752-r5" x="524.6" y="508" textLength="12.2" clip-path="url(#terminal-1821811752-line-20)">|</text><text class="terminal-1821811752-r7" x="549" y="508" textLength="219.6" clip-path="url(#terminal-1821811752-line-20)">&#160;APPLY&#160;TO&#160;SPEAKER&#160;</text><text class="terminal-1821811752-r5" x="780.8" y="508" textLength="12.2" clip-path="url(#terminal-1821811752-line-20)">|</text><text class="terminal-1821811752-r1" x="1683.6" y="508" textLength="12.2" clip-path="url(#terminal-1821811752-line-20)">
</text><text class="terminal-1821811752-r5" x="12.2" y="532.4" textLength="12.2" clip-path="url(#terminal-1821811752-line-21)">+</text><text class="terminal-1821811752-r5" x="24.4" y="532.4" textLength="207.4" clip-path="url(#terminal-1821811752-line-21)">-----------------</text><text class="terminal-1821811752-r5" x="231.8" y="532.4" textLength="12.2" clip-path="url(#terminal-1821811752-line-21)">+</text><text class="terminal-1821811752-r5" x="256.2" y="532.4" textLength="12.2" clip-path="url(#terminal-1821811752-line-21)">+</text><text class="terminal-1821811752-r5" x="268.4" y="532.4" textLength="231.8" clip-path="url(#terminal-1821811752-line-21)">-------------------</text><text class="terminal-1821811752-r5" x="500.2" y="532.4" textLength="12.2" clip-path="url(#terminal-1821811752-line-21)">+</text><text class="terminal-1821811752-r5" x="524.6" y="532.4" textLength="12.2" clip-path="url(#terminal-1821811752-line-21)">+</text><text class="terminal-1821811752-r5" x="536.8" y="532.4" textLength="244" clip-path="url(#terminal-1821811752-line-21)">--------------------</text><text class="terminal-1821811752-r5" x="780.8" y="532.4" textLength="12.2" clip-path="url(#terminal-1821811752-line-21)">+</text><text class="terminal-1821811752-r1" x="1683.6" y="532.4" textLength="12.2" clip-path="url(#terminal-1821811752-line-21)">
</text><text class="terminal-1821811752-r1" x="1683.6" y="556.8" textLength="12.2" clip-path="url(#terminal-1821811752-line-22)">
</text><text class="terminal-1821811752-r1" x="1683.6" y="581.2" textLength="12.2" clip-path="url(#terminal-1821811752-line-23)">
</text><text class="terminal-1821811752-r1" x="1683.6" y="605.6" textLength="12.2" clip-path="url(#terminal-1821811752-line-24)">
</text><text class="terminal-1821811752-r1" x="1683.6" y="630" textLength="12.2" clip-path="url(#terminal-1821811752-line-25)">
</text><text class="terminal-1821811752-r16" x="0" y="654.4" textLength="36.6" clip-path="url(#terminal-1821811752-line-26)">&#160;q&#160;</text><text class="terminal-1821811752-r12" x="36.6" y="654.4" textLength="61" clip-path="url(#terminal-1821811752-line-26)">Quit&#160;</text><text class="terminal-1821811752-r16" x="97.6" y="654.4" textLength="36.6" clip-path="url(#terminal-1821811752-line-26)">&#160;s&#160;</text><text class="terminal-1821811752-r12" x="134.2" y="654.4" textLength="61" clip-path="url(#terminal-1821811752-line-26)">Scan&#160;</text><text class="terminal-1821811752-r16" x="195.2" y="654.4" textLength="36.6" clip-path="url(#terminal-1821811752-line-26)">&#160;p&#160;</text><text class="terminal-1821811752-r12" x="231.8" y="654.4" textLength="73.2" clip-path="url(#terminal-1821811752-line-26)">Probe&#160;</text><text class="terminal-1821811752-r16" x="305" y="654.4" textLength="36.6" clip-path="url(#terminal-1821811752-line-26)">&#160;r&#160;</text><text class="terminal-1821811752-r12" x="341.6" y="654.4" textLength="97.6" clip-path="url(#terminal-1821811752-line-26)">Read&#160;EQ&#160;</text><text class="terminal-1821811752-r16" x="439.2" y="654.4" textLength="36.6" clip-path="url(#terminal-1821811752-line-26)">&#160;v&#160;</text><text class="terminal-1821811752-r12" x="475.8" y="654.4" textLength="97.6" clip-path="url(#terminal-1821811752-line-26)">Preview&#160;</text><text class="terminal-1821811752-r16" x="573.4" y="654.4" textLength="36.6" clip-path="url(#terminal-1821811752-line-26)">&#160;1&#160;</text><text class="terminal-1821811752-r12" x="610" y="654.4" textLength="85.4" clip-path="url(#terminal-1821811752-line-26)">Device&#160;</text><text class="terminal-1821811752-r16" x="695.4" y="654.4" textLength="36.6" clip-path="url(#terminal-1821811752-line-26)">&#160;2&#160;</text><text class="terminal-1821811752-r12" x="732" y="654.4" textLength="36.6" clip-path="url(#terminal-1821811752-line-26)">EQ&#160;</text><text class="terminal-1821811752-r16" x="768.6" y="654.4" textLength="36.6" clip-path="url(#terminal-1821811752-line-26)">&#160;3&#160;</text><text class="terminal-1821811752-r12" x="805.2" y="654.4" textLength="109.8" clip-path="url(#terminal-1821811752-line-26)">Activity&#160;</text><text class="terminal-1821811752-r17" x="1537.2" y="654.4" textLength="12.2" clip-path="url(#terminal-1821811752-line-26)">▏</text><text class="terminal-1821811752-r16" x="1549.4" y="654.4" textLength="24.4" clip-path="url(#terminal-1821811752-line-26)">^p</text><text class="terminal-1821811752-r12" x="1573.8" y="654.4" textLength="97.6" clip-path="url(#terminal-1821811752-line-26)">&#160;palette</text>
    </g>
    </g>
</svg>
